
<svg xmlns="http://www.w3.org/2000/svg" version="1.1" xmlns:xlink="http://www.w3.org/1999/xlink" preserveAspectRatio="none" x="0px" y="0px" width="1000px" height="1000px" viewBox="0 0 1000 1000">
<defs>
<g id="Layer1_0_FILL">
<path fill="#EF3B39" stroke="none" d="
M 1000 500
Q 1000 292.9 853.5 146.4 707.1 0 500 0 292.9 0 146.4 146.4 0 292.9 0 500 0 707.1 146.4 853.5 292.9 1000 500 1000 707.1 1000 853.5 853.5 1000 707.1 1000 500 Z"/>
</g>

<g id="tool_0_Layer0_0_FILL">
<path fill="#FFFFFF" stroke="none" d="
M 170 10.2
Q 171.95 8.35 172.05 4.7 171.35 0.4 166.5 0.15
L 166.5 0
Q 166.35 0 166.2 0 162.05 0 157.85 0
L 157.85 0.15
Q 146.5 1.15 138.15 5 138.05 5 137.9 5 137.9 5.15 137.9 5.25 131.65 8.05 126.5 11.9 110.6 23.8 104.6 45.5 104.6 45.95 104.6 46.35 104.6 46.5 104.6 46.6 104.45 46.6 104.3 46.6 104.3 46.75 104.3 46.9 104.3 47.05 104.3 47.15 104.2 48.6 103.75 49.65 103.75 50.5 103.75 51.35 103.75 51.5 103.75 51.6 103.6 51.6 103.5 51.6 103.5 51.75 103.5 51.9 103.5 52.05 103.45 52.15 102.45 68.2 106.8 80.2 98.95 87.35 91.3 94.65 77.1 108.2 62.85 121.7 50.2208984375 133.664453125 22.25 159.75 20.95 160.95 19.65 162.15 19.3 162.5 18.95 162.8 17.75 163.9 16.6 165 14.85 166.6 13.15 168.25 1.75 178.95 -9.5 189.85 -9.5 190 -9.5 190.15 -9.65 190.15 -9.75 190.15 -9.75 190.25 -9.75 190.4 -9.75 190.55 -9.85 190.65 -10.75 191.65 -11.45 192.9 -11.45 193.05 -11.45 193.2 -11.6 193.2 -11.7 193.2 -11.7 193.3 -11.7 193.45 -11.7 193.6 -11.75 193.7 -13.65 197.2 -14.75 201.5 -14.8 202.05 -14.75 202.6 -14.75 202.75 -14.75 202.9 -14.9 202.9 -15.05 202.9 -15.05 203.2 -15.05 203.45 -15.05 203.6 -15.05 203.75 -15.05 204.55 -15.05 205.4 -15.05 205.55 -15.05 205.65 -15.2 205.65 -15.3 205.65 -15.3 207.2 -15.2 208.7 -15.2 208.75 -15.05 208.75 -15.05 210 -15.05 211.2 -15.05 211.35 -15.05 211.5 -15.05 211.65 -15 211.7 -14.9 211.8 -14.75 211.8 -14.65 213.6 -14.25 215.1 -14.2 215.25 -14.2 215.4 -14.2 215.5 -14.15 215.6 -14.05 215.65 -13.95 215.65 -13.05 219.35 -11.2 222.1 -11.15 222.2 -11.15 222.3 -11.15 222.45 -11.1 222.55 -11 222.6 -10.9 222.6 -4.55 233.6 10.45 236.05 10.5 236.05 10.5 236.2 13.4 236.2 16.3 236.2 16.45 236.2 16.6 236.2 16.6 236.05 16.6 235.9 35.65 230.65 45.8 216.4 50.5 209.9 55.8 203.95 56.2 203.45 56.65 203 57.45 202.1 58.25 201.25 64.3 194.75 70.4 188.3 77.75 180.45 85.1 172.6 87.15 170.4 89.2 168.25 90.7 166.6 92.2 165 94.65 162.35 97.1 159.75 119.804296875 137.6423828125 127.2 129.75 134.3 122.15 141.2 114.35 165.35 122.3 187.05 112.2 205.85 103.5 215.4 85.25 223.2 70.35 219.45 51.15 219.3 50.4 218.35 49.95 216.1 48.7 213.9 49.9 213.8 49.95 213.65 49.95 199.45 63.5 185.7 77.5 184.8 78.4 183.95 79.35 168 74.5 152.1 69.55 152.05 69.5 152.05 69.35 146.85 53.65 141.8 37.75 141.8 37.6 141.8 37.45 155.85 23.75 170 10.2
M 11.85 217.9
Q 1.95 217.8 1.35 207.6 4.1 194.6 17.35 199.9 21.95 201.7 21.95 207.9 22 218.05 11.85 217.9 Z"/>
</g>

<path id="cloud_0_Layer0_0_1_STROKES" stroke="#FFFFFF" stroke-width="30" stroke-linejoin="round" stroke-linecap="round" fill="none" d="
M 199.65 0
Q 212.7 0 224.85 3.35 236.85 6.75 247.4 12.9 257.8 19.05 266.45 27.7 275.1 36.35 281.25 46.9 287.4 57.3 290.75 69.45 294.15 81.45 294.15 94.5 294.15 113.4 287.1 130.5 280.05 147.65 267.75 160.7 255.45 173.75 238.75 181.5 222.05 189.1 202.85 189.1
L 69.3 189.1
Q 55.05 189.1 42.45 183.7 29.9 178.15 20.5 168.75 11 159.25 5.55 146.65 0 134.05 0 119.85 0 105.3 5.4 92.85 10.85 80.3 20.2 71.2 29.6 62.1 42.35 57 54.95 51.7 69.3 51.7 71.9 46.15 76 41.6 79.95 36.9 85.1 33.7 90.1 30.45 95.95 28.7 101.8 26.95 107.95 26.95 118.95 26.95 128.6 32.4 129.35 31.2 130.2 30.3 131.1 29.45 132.1 28.55 146.35 14.8 163.05 7.45 179.75 0 199.65 0 Z"/>
</defs>

<g transform="matrix( 1, 0, 0, 1, 0,0) ">
<use xlink:href="#Layer1_0_FILL"/>
</g>

<g transform="matrix( 1.0109710693359375, 0, 0, 1.0109710693359375, 175.95,367.9) ">
<g transform="matrix( 2.599365234375, 0, 0, 2.599365234375, -61.75,-138.3) ">
<g transform="matrix( 1, 0, 0, 1, 0,0) ">
<use xlink:href="#cloud_0_Layer0_0_1_STROKES"/>
</g>
</g>

<g transform="matrix( 1.8755340576171875, 1.082855224609375, -1.082855224609375, 1.8755340576171875, 273.65,-202.6) ">
<g transform="matrix( 1, 0, 0, 1, 0,0) ">
<use xlink:href="#tool_0_Layer0_0_FILL"/>
</g>
</g>
</g>
</svg>
