<?xml version="1.0" encoding="utf-8"?>
<!-- Generator: Adobe Illustrator 22.0.1, SVG Export Plug-In . SVG Version: 6.00 Build 0)  -->
<svg version="1.1" id="Layer_1" xmlns="http://www.w3.org/2000/svg" xmlns:xlink="http://www.w3.org/1999/xlink" x="0px" y="0px"
	 viewBox="30 0 100 58" style="enable-background:new 0 0 100 58;" xml:space="preserve">
<style type="text/css">
	.st0{fill:#1A3F56;}
	.st1{clip-path:url(#SVGID_2_);fill:#1A3F56;}
	.st2{clip-path:url(#SVGID_4_);fill:#1A3F56;}
</style>
<polygon class="st0" points="0.8,54.8 16.3,43.5 19.3,43.5 46,16.2 72.4,40.5 85.7,27.6 88.4,29.6 93.6,23.4 96.7,26 116.6,7.5 
	143.1,39.9 145,38.3 163.3,54.8 145.4,32.6 142.3,34.5 117.4,1 95.9,21.9 93.6,19.9 88,24.9 85.5,23.4 72.7,37 47.8,8.5 18.5,38.6 
	14.1,38.8 "/>
<polygon class="st0" points="26.8,39.9 45.4,21.5 44.3,29.1 48.4,33.5 45.7,34.9 51.3,43.8 40,35.9 "/>
<polygon class="st0" points="75.4,41.4 86.4,31 89.4,32.4 94,27.1 99.4,33.4 93.8,31.4 85.1,42.2 92.8,57.2 "/>
<g>
	<defs>
		<rect id="SVGID_1_" x="-106" y="-284.8" width="841.9" height="595.3"/>
	</defs>
	<clipPath id="SVGID_2_">
		<use xlink:href="#SVGID_1_"  style="overflow:visible;"/>
	</clipPath>
	<path class="st1" d="M34,31.7"/>
</g>
<polygon class="st0" points="105.9,21.2 115.8,17.3 138.6,37.4 116.3,11.3 "/>
<g>
	<defs>
		<rect id="SVGID_3_" x="-106" y="-284.8" width="841.9" height="595.3"/>
	</defs>
	<clipPath id="SVGID_4_">
		<use xlink:href="#SVGID_3_"  style="overflow:visible;"/>
	</clipPath>
	<path class="st2" d="M64.9,16.4c0,0,2.1,1.9,3.7,2.3c1.6,0.4,2.3,0.4,2.3,0.4l2.8-2c0,0,2.4-0.2,3.8-1c1.5-0.8,2.7-2.1,2.7-2.1
		s1.6-0.5,2.4,0c0.8,0.5,0.4,0.9,0.4,0.9s1.8-1,0.6-2c-0.8-0.7-2.1-1.1-3.7-1.1c-1.5,0-1.6,0.1-2.9-0.8s-1.4-2.6-5.3-3.4
		C67.9,6.8,65.5,4,65.5,4s0.1,2.3,2.6,5.2c2.5,3,6,5.1,6,5.1s0,1-2.7,1.4C68.6,16.2,64.9,16.4,64.9,16.4"/>
	<path class="st2" d="M77.2,9.9c0,0,0.5-1.3,2.8-2c2.2-0.6,3.2-1.8,3.2-1.8s-0.6,2.2-1.4,3.3c-0.9,1-1.3,1.3-1.3,1.3s-1.3,0.3-2.1,0
		C77.5,10.6,77.2,9.9,77.2,9.9"/>
</g>
</svg>
