<?xml version="1.0" encoding="utf-8"?>
<!-- Generator: Adobe Illustrator 22.0.1, SVG Export Plug-In . SVG Version: 6.00 Build 0)  -->
<svg version="1.1" id="Layer_1" xmlns="http://www.w3.org/2000/svg" xmlns:xlink="http://www.w3.org/1999/xlink" x="0px" y="0px"
	 viewBox="0 0 578 618" style="enable-background:new 0 0 578 618;" xml:space="preserve">
<style type="text/css">
	.st0{fill:#27AAE1;}
	.st1{fill:#1C75BC;}
</style>
<g>
	<g>
		<path class="st0" d="M20.5,316V24h59v114.9H195V24h59v292h-59V188.3H79.5V316L20.5,316L20.5,316z"/>
	</g>
	<path class="st1" d="M79.5,264.9v-76.5H195v11.4c19.3-8.2,38.9-15.4,59-21.5V24h-59v114.9H79.5V24h-59v289.2
		C39.2,295.8,58.9,279.7,79.5,264.9z"/>
	<path class="st0" d="M561.5,316h-64.2l-25.5-66.3H355.1L331,316h-62.5L382.2,24h62.4L561.5,316z M452.9,200.5L412.7,92.1
		l-39.4,108.4L452.9,200.5L452.9,200.5z"/>
	<path class="st1" d="M390.5,153.1l22.2-60.9l22.2,59.7c20.7,0.2,41.6,1.5,62.4,3.8L444.6,24h-62.4l-53.1,136.3
		C349.4,156.9,369.9,154.4,390.5,153.1z"/>
</g>
<g>
	<g>
		<path class="st1" d="M23.3,493.5V434h12v23.4h23.5V434h12v59.5h-12v-26H35.3v26H23.3z"/>
		<path class="st1" d="M80.8,464.1c0-6.1,0.9-11.1,2.7-15.3c1.4-3,3.2-5.7,5.5-8.2c2.3-2.4,4.9-4.2,7.7-5.4c3.7-1.6,8-2.4,12.8-2.4
			c8.8,0,15.8,2.7,21,8.2c5.3,5.4,7.9,13,7.9,22.7c0,9.6-2.6,17.1-7.8,22.5c-5.2,5.4-12.2,8.1-20.9,8.1c-8.8,0-15.9-2.7-21.1-8.1
			C83.5,481,80.8,473.6,80.8,464.1z M93.2,463.7c0,6.7,1.6,11.8,4.7,15.3c3.1,3.5,7.1,5.2,11.8,5.2s8.7-1.7,11.8-5.2
			c3.1-3.4,4.6-8.6,4.6-15.5c0-6.8-1.5-11.9-4.5-15.3c-3-3.4-7-5-11.9-5c-4.9,0-8.9,1.7-12,5.1C94.7,451.8,93.2,456.9,93.2,463.7z"
			/>
		<path class="st1" d="M144.9,474.2l11.7-1.1c0.7,3.9,2.1,6.8,4.3,8.6c2.1,1.8,5.1,2.8,8.7,2.8c3.9,0,6.8-0.8,8.7-2.5
			c2-1.6,2.9-3.6,2.9-5.7c0-1.4-0.4-2.6-1.2-3.6c-0.8-1-2.3-1.8-4.3-2.6c-1.4-0.5-4.6-1.4-9.6-2.6c-6.4-1.6-11-3.6-13.6-5.9
			c-3.6-3.3-5.5-7.3-5.5-12c0-3,0.9-5.9,2.6-8.5c1.7-2.6,4.2-4.6,7.4-6c3.2-1.4,7.1-2.1,11.7-2.1c7.5,0,13.1,1.6,16.9,4.9
			c3.8,3.3,5.8,7.6,5.9,13.1l-12,0.5c-0.5-3.1-1.6-5.3-3.3-6.6c-1.7-1.3-4.2-2-7.6-2c-3.5,0-6.2,0.7-8.2,2.2
			c-1.3,0.9-1.9,2.2-1.9,3.7c0,1.4,0.6,2.6,1.8,3.6c1.5,1.3,5.2,2.6,11,4c5.8,1.4,10.2,2.8,13,4.3c2.8,1.5,5,3.5,6.6,6
			c1.6,2.6,2.4,5.7,2.4,9.5c0,3.4-1,6.6-2.8,9.6c-1.9,3-4.6,5.2-8,6.6c-3.5,1.4-7.8,2.2-12.9,2.2c-7.5,0-13.3-1.7-17.3-5.2
			C148.1,485.9,145.6,480.8,144.9,474.2z"/>
		<path class="st1" d="M203.3,493.5V434h19.3c7.3,0,12.1,0.3,14.3,0.9c3.4,0.9,6.3,2.8,8.6,5.8c2.3,3,3.5,6.8,3.5,11.6
			c0,3.7-0.7,6.7-2,9.2c-1.3,2.5-3,4.4-5.1,5.9c-2,1.4-4.1,2.4-6.2,2.8c-2.9,0.6-7,0.9-12.5,0.9h-7.8v22.4H203.3z M215.3,444.1V461
			h6.6c4.7,0,7.9-0.3,9.5-0.9c1.6-0.6,2.8-1.6,3.8-2.9c0.9-1.3,1.4-2.9,1.4-4.6c0-2.2-0.6-3.9-1.9-5.4c-1.3-1.4-2.9-2.3-4.8-2.6
			c-1.4-0.3-4.3-0.4-8.6-0.4H215.3z"/>
		<path class="st1" d="M258.4,493.5V434h12v59.5H258.4z"/>
		<path class="st1" d="M295.2,493.5v-49.4h-17.6V434h47.3v10.1h-17.6v49.4H295.2z"/>
		<path class="st1" d="M380.1,493.5H367l-5.2-13.5H338l-4.9,13.5h-12.7l23.2-59.5h12.7L380.1,493.5z M357.9,470l-8.2-22.1l-8,22.1
			L357.9,470L357.9,470z"/>
		<path class="st1" d="M386.7,493.5v-59h12v49h29.9v10H386.7z"/>
		<path class="st1" d="M436.8,493.5V434h12v59.5H436.8z"/>
		<path class="st1" d="M457.2,474.2l11.7-1.1c0.7,3.9,2.1,6.8,4.3,8.6c2.2,1.8,5.1,2.8,8.7,2.8c3.9,0,6.8-0.8,8.7-2.5
			c2-1.6,2.9-3.6,2.9-5.7c0-1.4-0.4-2.6-1.2-3.6c-0.8-1-2.3-1.8-4.3-2.6c-1.4-0.5-4.6-1.4-9.6-2.6c-6.4-1.6-11-3.6-13.5-5.9
			c-3.7-3.3-5.5-7.3-5.5-12c0-3,0.9-5.9,2.6-8.5c1.7-2.6,4.2-4.6,7.4-6c3.2-1.4,7.1-2.1,11.7-2.1c7.5,0,13.1,1.6,16.9,4.9
			c3.8,3.3,5.8,7.6,5.9,13.1l-12,0.5c-0.5-3.1-1.6-5.3-3.3-6.6c-1.7-1.3-4.2-2-7.6-2c-3.5,0-6.2,0.7-8.2,2.2
			c-1.3,0.9-1.9,2.2-1.9,3.7c0,1.4,0.6,2.6,1.8,3.6c1.5,1.3,5.2,2.6,11,4c5.8,1.4,10.2,2.8,13,4.3c2.8,1.5,5,3.5,6.6,6
			c1.6,2.6,2.4,5.7,2.4,9.5c0,3.4-1,6.6-2.8,9.6c-1.9,3-4.6,5.2-8,6.6c-3.5,1.4-7.8,2.2-12.9,2.2c-7.5,0-13.3-1.7-17.3-5.2
			C460.4,485.9,458,480.8,457.2,474.2z"/>
		<path class="st1" d="M529.1,493.5v-49.4h-17.6V434h47.3v10.1h-17.6v49.4H529.1z"/>
	</g>
	<g>
		<path class="st1" d="M201.5,593.8h-13.1l-5.2-13.5h-23.8l-4.9,13.5h-12.7l23.2-59.5h12.7L201.5,593.8z M179.4,570.2l-8.2-22.1
			l-8,22.1H179.4z"/>
		<path class="st1" d="M204.8,574.4l11.7-1.1c0.7,3.9,2.1,6.8,4.3,8.6c2.1,1.8,5.1,2.8,8.7,2.8c3.9,0,6.8-0.8,8.7-2.5
			c2-1.6,2.9-3.6,2.9-5.7c0-1.4-0.4-2.6-1.2-3.6c-0.8-1-2.3-1.8-4.3-2.6c-1.4-0.5-4.6-1.4-9.6-2.6c-6.4-1.6-11-3.6-13.6-5.9
			c-3.7-3.3-5.5-7.3-5.5-12c0-3,0.9-5.9,2.6-8.5c1.7-2.6,4.2-4.6,7.4-6c3.2-1.4,7.1-2.1,11.7-2.1c7.5,0,13.1,1.6,16.9,4.9
			c3.8,3.3,5.8,7.6,5.9,13.1l-12,0.5c-0.5-3.1-1.6-5.3-3.3-6.6c-1.7-1.3-4.2-2-7.6-2c-3.5,0-6.2,0.7-8.2,2.2
			c-1.3,0.9-1.9,2.2-1.9,3.7c0,1.4,0.6,2.6,1.8,3.6c1.5,1.3,5.2,2.6,11,4c5.8,1.4,10.2,2.8,13,4.3c2.8,1.5,5,3.5,6.6,6
			c1.6,2.6,2.4,5.7,2.4,9.5c0,3.4-1,6.6-2.8,9.6c-1.9,3-4.6,5.2-8,6.6c-3.5,1.4-7.8,2.2-12.9,2.2c-7.5,0-13.3-1.7-17.3-5.2
			C208,586.1,205.6,581.1,204.8,574.4z"/>
		<path class="st1" d="M260.2,574.4l11.7-1.1c0.7,3.9,2.1,6.8,4.3,8.6c2.1,1.8,5.1,2.8,8.7,2.8c3.9,0,6.8-0.8,8.7-2.5
			c2-1.6,2.9-3.6,2.9-5.7c0-1.4-0.4-2.6-1.2-3.6c-0.8-1-2.3-1.8-4.3-2.6c-1.4-0.5-4.6-1.4-9.6-2.6c-6.4-1.6-11-3.6-13.6-5.9
			c-3.7-3.3-5.5-7.3-5.5-12c0-3,0.9-5.9,2.6-8.5c1.7-2.6,4.2-4.6,7.4-6c3.2-1.4,7.1-2.1,11.7-2.1c7.5,0,13.1,1.6,16.9,4.9
			c3.8,3.3,5.8,7.6,5.9,13.1l-12,0.5c-0.5-3.1-1.6-5.3-3.3-6.6c-1.7-1.3-4.2-2-7.6-2c-3.5,0-6.2,0.7-8.2,2.2
			c-1.3,0.9-1.9,2.2-1.9,3.7c0,1.4,0.6,2.6,1.8,3.6c1.5,1.3,5.2,2.6,11,4c5.8,1.4,10.2,2.8,13,4.3c2.8,1.5,5,3.5,6.6,6
			c1.6,2.6,2.4,5.7,2.4,9.5c0,3.4-1,6.6-2.8,9.6c-1.9,3-4.6,5.2-8,6.6c-3.5,1.4-7.8,2.2-12.9,2.2c-7.5,0-13.3-1.7-17.3-5.2
			C263.4,586.1,261,581.1,260.2,574.4z"/>
		<path class="st1" d="M318.3,593.8v-59.5h12v59.5H318.3z"/>
		<path class="st1" d="M338.7,574.4l11.7-1.1c0.7,3.9,2.1,6.8,4.3,8.6c2.2,1.8,5.1,2.8,8.7,2.8c3.9,0,6.8-0.8,8.7-2.5
			c2-1.6,2.9-3.6,2.9-5.7c0-1.4-0.4-2.6-1.2-3.6c-0.8-1-2.3-1.8-4.3-2.6c-1.4-0.5-4.6-1.4-9.6-2.6c-6.4-1.6-11-3.6-13.5-5.9
			c-3.7-3.3-5.5-7.3-5.5-12c0-3,0.9-5.9,2.6-8.5c1.7-2.6,4.2-4.6,7.4-6c3.2-1.4,7.1-2.1,11.7-2.1c7.5,0,13.1,1.6,16.9,4.9
			c3.8,3.3,5.8,7.6,5.9,13.1l-12,0.5c-0.5-3.1-1.6-5.3-3.3-6.6c-1.7-1.3-4.2-2-7.6-2c-3.5,0-6.2,0.7-8.2,2.2
			c-1.3,0.9-1.9,2.2-1.9,3.7c0,1.4,0.6,2.6,1.8,3.6c1.5,1.3,5.2,2.6,11,4c5.8,1.4,10.2,2.8,13,4.3c2.8,1.5,5,3.5,6.6,6
			c1.6,2.6,2.4,5.7,2.4,9.5c0,3.4-0.9,6.6-2.8,9.6c-1.9,3-4.6,5.2-8,6.6c-3.5,1.4-7.8,2.2-12.9,2.2c-7.5,0-13.3-1.7-17.3-5.2
			C341.9,586.1,339.5,581.1,338.7,574.4z"/>
		<path class="st1" d="M410.6,593.8v-49.4h-17.6v-10.1h47.3v10.1h-17.6v49.4H410.6z"/>
	</g>
</g>
</svg>
