<?xml version="1.0" standalone="no"?>
<!DOCTYPE svg PUBLIC "-//W3C//DTD SVG 20010904//EN"
 "http://www.w3.org/TR/2001/REC-SVG-20010904/DTD/svg10.dtd">
<svg version="1.0" xmlns="http://www.w3.org/2000/svg"
 width="260.000000pt" height="260.000000pt" viewBox="0 0 260.000000 260.000000"
 preserveAspectRatio="xMidYMid meet">
<metadata>
Created by potrace 1.11, written by Peter Selinger 2001-2013
</metadata>
<g transform="translate(0.000000,260.000000) scale(0.100000,-0.100000)"
fill="#000000" stroke="none">
<path d="M290 2524 c-41 -42 -123 -117 -182 -167 -100 -84 -127 -109 -95 -91
84 50 367 303 367 328 0 16 -22 -1 -90 -70z"/>
<path d="M505 2559 c-27 -37 -91 -92 -165 -141 -67 -45 -79 -65 -15 -26 75 46
250 207 225 207 -8 1 -28 -18 -45 -40z"/>
<path d="M750 2585 c-30 -9 -37 -13 -20 -13 14 0 41 6 60 13 44 17 19 17 -40
0z"/>
<path d="M1723 2593 c-20 -8 -15 -22 12 -35 14 -6 25 -17 25 -24 0 -17 21 -23
43 -12 10 5 28 6 40 2 37 -13 46 -13 41 1 -5 11 13 23 49 31 4 1 10 3 15 4 4
1 12 1 17 0 59 -14 205 -19 205 -7 0 5 9 5 20 2 12 -4 27 -1 35 5 8 6 19 9 24
5 6 -3 23 2 38 12 15 10 24 12 19 5 -4 -7 1 -24 13 -41 23 -32 29 -117 14
-206 -6 -35 -3 -86 9 -170 21 -145 22 -223 4 -292 -18 -67 -41 -98 -94 -124
-105 -52 -197 -28 -320 82 -85 75 -120 89 -225 87 -47 -1 -66 4 -104 28 -54
33 -96 105 -108 180 -3 24 -10 44 -16 44 -16 0 -9 -103 10 -146 37 -82 149
-145 235 -131 55 9 83 -3 158 -70 143 -126 262 -156 383 -97 126 62 159 183
119 438 -10 63 -14 121 -9 156 3 30 9 74 12 98 6 49 -12 125 -34 143 -18 16 3
31 26 20 9 -4 30 -7 46 -6 43 3 45 4 45 15 0 10 -722 13 -747 3z"/>
<path d="M1190 2560 c-9 -6 -10 -10 -3 -10 6 0 15 5 18 10 8 12 4 12 -15 0z"/>
<path d="M1135 2540 c-13 -6 -15 -9 -5 -9 8 0 22 4 30 9 18 12 2 12 -25 0z"/>
<path d="M1030 2510 c-20 -6 -21 -8 -5 -8 11 0 29 3 40 8 25 11 -1 11 -35 0z"/>
<path d="M1585 2510 c-3 -6 1 -7 9 -4 18 7 21 14 7 14 -6 0 -13 -4 -16 -10z"/>
<path d="M968 2493 c7 -3 16 -2 19 1 4 3 -2 6 -13 5 -11 0 -14 -3 -6 -6z"/>
<path d="M806 2481 c-3 -4 6 -6 19 -3 14 2 25 6 25 8 0 8 -39 4 -44 -5z"/>
<path d="M888 2483 c6 -2 18 -2 25 0 6 3 1 5 -13 5 -14 0 -19 -2 -12 -5z"/>
<path d="M1525 2470 c-3 -6 1 -7 9 -4 18 7 21 14 7 14 -6 0 -13 -4 -16 -10z"/>
<path d="M585 2450 c-16 -7 -17 -9 -3 -9 9 -1 20 4 23 9 7 11 7 11 -20 0z"/>
<path d="M780 2450 c-328 -47 -488 -224 -507 -562 -4 -81 -9 -108 -21 -113 -8
-3 -68 -8 -133 -12 -66 -3 -119 -10 -119 -15 0 -6 51 -7 130 -3 72 4 130 4
130 1 0 -4 -5 -16 -10 -27 -7 -13 -7 -25 0 -38 17 -32 -4 -71 -37 -71 -25 0
-116 17 -186 35 -20 5 -27 4 -27 -8 0 -11 34 -21 143 -41 78 -15 152 -29 164
-31 12 -3 25 -15 29 -28 11 -38 47 -110 73 -152 95 -147 339 -308 551 -364 47
-13 91 -25 98 -27 14 -4 35 -52 27 -63 -9 -15 -326 -161 -348 -161 -5 0 -56
-22 -115 -49 -142 -65 -577 -241 -596 -241 -16 0 -31 -18 -23 -27 7 -7 152 43
292 101 61 25 118 46 127 46 20 0 38 -54 38 -115 0 -69 -8 -84 -54 -96 -151
-40 -406 -149 -406 -174 0 -14 4 -14 37 1 368 157 503 192 766 201 217 8 298
-10 427 -92 77 -49 157 -134 231 -246 41 -61 58 -79 77 -79 27 0 30 -7 -52
114 -166 244 -344 339 -631 338 -110 -1 -166 -6 -311 -30 l-51 -9 1 61 c0 34
-3 81 -8 106 l-8 45 125 57 c68 32 129 58 135 58 6 0 35 11 64 23 29 13 69 30
88 37 19 7 69 31 111 52 41 21 82 38 90 38 8 0 30 -14 49 -31 59 -51 103 -69
171 -69 55 0 64 3 90 31 15 17 31 47 35 67 16 96 11 90 119 129 55 20 125 45
155 56 81 29 231 48 277 35 94 -26 177 -92 242 -192 58 -88 147 -301 177 -421
28 -116 53 -265 47 -281 -5 -13 -95 -41 -164 -50 -32 -4 -48 -2 -56 8 -6 7
-17 69 -23 138 -12 135 -47 265 -102 375 -36 72 -55 95 -80 95 -19 0 -19 -1 2
-35 100 -162 134 -300 156 -643 6 -90 9 -102 26 -102 16 0 18 9 18 69 l0 68
69 6 c38 3 88 11 111 18 52 16 56 10 66 -88 l6 -73 39 0 39 0 -16 37 c-9 21
-19 47 -24 58 -4 11 -13 61 -19 110 -25 191 -68 374 -111 470 -9 22 -28 65
-41 95 -42 99 -117 216 -169 263 -57 51 -145 97 -199 104 -55 7 -228 -22 -306
-52 -103 -40 -208 -75 -221 -75 -6 0 -14 14 -18 30 -4 24 1 41 22 73 15 23 29
44 32 47 18 16 41 66 68 145 48 142 48 239 2 465 -19 94 -81 238 -137 318
-108 155 -284 309 -398 345 -62 20 -173 28 -245 17z m313 -392 c33 -57 35 -58
94 -63 71 -5 103 -20 103 -48 0 -13 12 -35 28 -49 52 -51 110 -56 143 -15 16
20 17 20 27 1 20 -38 52 -184 63 -286 10 -86 9 -116 -4 -178 -27 -130 -64
-220 -127 -305 -24 -31 -29 -46 -24 -70 17 -86 -2 -193 -42 -226 -25 -21 -88
-15 -136 14 -57 33 -82 63 -84 96 -3 58 -25 84 -84 99 -202 52 -293 91 -399
174 -140 110 -192 166 -243 258 -30 57 -68 160 -68 188 0 35 24 116 36 124 6
4 15 36 18 72 6 55 11 65 32 75 32 14 34 14 34 -4 0 -22 21 -18 27 5 4 15 11
19 24 15 10 -3 27 -1 38 4 14 8 27 8 44 0 16 -7 35 -8 60 -1 19 5 39 6 44 2 4
-5 27 -6 51 -3 40 5 42 7 27 23 -15 16 -14 18 7 23 21 6 21 7 5 25 -9 10 -17
26 -17 35 0 14 6 16 28 11 15 -3 37 -10 50 -16 16 -9 28 -8 46 2 21 11 24 18
19 43 -5 27 -4 29 13 22 10 -4 29 -10 42 -12 12 -3 25 -9 28 -14 3 -5 11 -9
18 -9 17 0 29 41 16 54 -6 6 -10 14 -10 19 0 17 45 -36 73 -85z m325 -160 c5
-25 -25 -23 -38 3 -10 18 -9 20 12 17 12 -2 24 -11 26 -20z m-1113 -289 c10
-15 -1 -22 -24 -14 -12 3 -19 11 -16 16 8 12 32 11 40 -2z"/>
<path d="M1032 1960 c-158 -57 -223 -90 -176 -90 23 0 254 93 254 103 0 11
-20 8 -78 -13z"/>
<path d="M1106 1904 c-21 -8 -88 -24 -148 -37 -63 -12 -113 -28 -115 -35 -15
-37 102 -102 182 -102 59 0 128 29 148 62 18 29 21 96 6 114 -14 16 -21 16
-73 -2z m36 -36 c9 -26 -8 -71 -32 -90 -28 -20 -90 -34 -115 -24 -14 5 -14 8
1 31 13 20 14 28 4 40 -16 20 -15 21 50 38 70 19 87 20 92 5z m-172 -63 c0 -8
-6 -15 -14 -15 -17 0 -28 14 -19 24 12 12 33 6 33 -9z"/>
<path d="M650 1859 c-156 -23 -230 -42 -217 -55 3 -3 53 4 111 15 59 12 119
21 135 21 15 0 36 7 47 15 19 14 19 14 -1 14 -11 -1 -45 -5 -75 -10z"/>
<path d="M725 1822 c-19 -17 -130 -52 -185 -57 -113 -12 -117 -16 -74 -73 71
-92 200 -91 283 3 32 37 39 30 20 -23 -14 -41 -5 -66 10 -27 6 17 14 37 18 45
3 8 7 33 9 55 1 22 4 49 6 60 2 17 -3 20 -37 23 -22 2 -45 -1 -50 -6z m38 -29
c-36 -97 -128 -166 -190 -142 l-25 9 26 21 c22 17 26 27 21 49 -6 26 -4 27 62
45 37 10 75 22 83 26 23 13 30 11 23 -8z m-263 -53 c0 -5 -4 -10 -10 -10 -5 0
-10 5 -10 10 0 6 5 10 10 10 6 0 10 -4 10 -10z m58 -27 c-5 -25 -28 -28 -28
-4 0 12 6 21 16 21 9 0 14 -7 12 -17z"/>
<path d="M825 1673 c0 -68 -6 -113 -18 -146 -24 -67 -9 -101 47 -105 39 -3
136 25 136 40 0 12 -20 10 -65 -7 -88 -31 -111 -7 -80 85 12 36 16 74 13 126
-2 41 -1 74 1 74 3 0 16 -11 30 -24 15 -13 37 -27 51 -30 23 -6 23 -6 5 4 -11
7 -31 25 -45 40 -14 16 -36 31 -50 35 l-25 6 0 -98z"/>
<path d="M1085 1355 c-102 -58 -177 -92 -254 -113 -40 -12 -76 -24 -79 -27
-25 -24 210 38 267 72 96 55 148 77 198 81 69 6 58 22 -15 22 -46 -1 -68 -7
-117 -35z"/>
<path d="M1425 2336 c-9 -24 -15 -50 -13 -58 3 -7 13 11 22 40 22 66 15 80 -9
18z"/>
<path d="M220 2329 c-22 -18 -22 -19 -3 -10 12 6 25 16 28 21 9 15 3 12 -25
-11z"/>
<path d="M113 2257 c-35 -23 -63 -45 -63 -49 0 -5 30 12 68 38 76 52 79 54 66
54 -5 -1 -37 -20 -71 -43z"/>
<path d="M232 2250 c-24 -22 -27 -30 -13 -30 5 0 16 11 25 25 20 30 17 32 -12
5z"/>
<path d="M225 2174 c-33 -18 -55 -34 -50 -34 12 0 115 58 115 65 0 7 2 8 -65
-31z"/>
<path d="M136 2053 c-6 -14 -5 -15 5 -6 7 7 10 15 7 18 -3 3 -9 -2 -12 -12z"/>
<path d="M21 1919 c-13 -11 -22 -22 -19 -24 2 -3 15 6 28 20 28 30 24 32 -9 4z"/>
<path d="M1818 1750 c-9 -6 -22 -26 -28 -46 -16 -46 0 -64 63 -71 40 -5 49 -2
72 21 21 21 25 33 20 54 -4 15 -11 33 -17 39 -12 15 -86 17 -110 3z m80 -22
c16 -16 15 -40 -1 -62 -10 -14 -21 -17 -45 -11 -34 7 -38 18 -22 59 10 28 47
35 68 14z"/>
<path d="M2411 1684 c-24 -31 -58 -64 -75 -75 -17 -10 -26 -19 -21 -19 27 0
110 72 132 113 24 48 10 40 -36 -19z"/>
<path d="M2440 1600 c-7 -13 -7 -20 -1 -20 6 0 15 9 21 20 7 13 7 20 1 20 -6
0 -15 -9 -21 -20z"/>
<path d="M1726 1588 c-30 -42 -14 -78 34 -78 33 0 60 28 60 62 0 43 -68 54
-94 16z m64 -24 c0 -27 -25 -43 -42 -26 -8 8 -8 18 0 37 14 31 42 23 42 -11z"/>
<path d="M2055 1580 c28 -12 47 -12 40 0 -3 6 -18 10 -33 9 -24 0 -25 -1 -7
-9z"/>
<path d="M2123 1563 c9 -2 23 -2 30 0 6 3 -1 5 -18 5 -16 0 -22 -2 -12 -5z"/>
<path d="M2208 1563 c7 -3 16 -2 19 1 4 3 -2 6 -13 5 -11 0 -14 -3 -6 -6z"/>
<path d="M2509 1483 c-14 -37 -16 -72 -4 -73 5 0 10 13 11 28 1 16 7 38 13 50
8 15 8 22 1 22 -6 0 -15 -12 -21 -27z"/>
<path d="M193 1468 c20 -19 51 -50 68 -69 l31 -34 -20 35 c-12 19 -42 50 -69
68 l-48 34 38 -34z"/>
<path d="M1655 1488 c-32 -14 -49 -46 -34 -64 25 -30 89 -8 89 31 0 30 -27 46
-55 33z m25 -28 c0 -24 -26 -38 -42 -22 -8 8 -8 15 2 27 18 21 40 19 40 -5z"/>
<path d="M2340 1428 c-23 -28 -27 -37 -13 -27 27 18 68 69 56 69 -4 0 -24 -19
-43 -42z"/>
<path d="M2118 1409 c18 -12 35 -19 38 -16 3 3 -8 13 -25 21 -43 23 -52 19
-13 -5z"/>
<path d="M90 1386 c0 -2 8 -10 18 -17 15 -13 16 -12 3 4 -13 16 -21 21 -21 13z"/>
<path d="M37 1274 c-4 -4 -7 -11 -7 -15 0 -8 181 -119 196 -119 6 0 39 -11 73
-26 35 -14 65 -23 67 -21 3 2 -35 19 -83 38 -87 34 -194 97 -223 132 -8 10
-19 15 -23 11z"/>
<path d="M1863 1273 c9 -2 25 -2 35 0 9 3 1 5 -18 5 -19 0 -27 -2 -17 -5z"/>
<path d="M336 1235 c4 -16 20 -56 35 -87 20 -40 25 -58 16 -61 -7 -4 -6 -6 4
-6 9 -1 34 -15 55 -32 22 -17 48 -36 59 -41 20 -11 20 -11 1 11 -14 16 -16 21
-5 22 8 0 -2 7 -21 15 -36 15 -68 56 -123 157 -20 39 -26 45 -21 22z"/>
<path d="M1722 1215 c-61 -58 -48 -58 18 0 28 25 46 45 40 45 -6 0 -32 -20
-58 -45z"/>
<path d="M2523 1162 l-1 -87 12 60 c11 59 10 115 -3 115 -3 0 -7 -39 -8 -88z"/>
<path d="M0 1223 c0 -4 43 -51 96 -103 166 -163 301 -319 371 -426 7 -10 6 -1
-3 21 -20 53 -29 66 -115 165 -148 171 -349 368 -349 343z"/>
<path d="M506 1217 c3 -8 19 -24 37 -37 l32 -23 -34 37 c-38 40 -43 43 -35 23z"/>
<path d="M2299 1196 c8 -9 24 -22 35 -28 19 -10 20 -10 7 6 -8 9 -24 22 -35
28 -19 10 -20 10 -7 -6z"/>
<path d="M2072 1170 c7 -11 17 -20 22 -20 5 0 1 9 -9 20 -10 11 -20 20 -22 20
-2 0 2 -9 9 -20z"/>
<path d="M580 1156 c0 -2 8 -10 18 -17 15 -13 16 -12 3 4 -13 16 -21 21 -21
13z"/>
<path d="M710 956 c0 -3 9 -10 20 -16 11 -6 20 -8 20 -6 0 3 -9 10 -20 16 -11
6 -20 8 -20 6z"/>
<path d="M415 941 c8 -15 65 -44 72 -37 3 2 -14 14 -37 26 -23 12 -39 17 -35
11z"/>
<path d="M505 890 c3 -5 11 -10 16 -10 6 0 7 5 4 10 -3 6 -11 10 -16 10 -6 0
-7 -4 -4 -10z"/>
<path d="M857 859 c7 -7 15 -10 18 -7 3 3 -2 9 -12 12 -14 6 -15 5 -6 -5z"/>
<path d="M616 785 c10 -8 23 -15 28 -15 6 0 1 7 -10 15 -10 8 -23 15 -28 15
-6 0 -1 -7 10 -15z"/>
<path d="M2500 773 c0 -36 29 -137 37 -129 3 3 1 25 -6 48 -6 24 -13 56 -16
72 -6 40 -15 45 -15 9z"/>
<path d="M2551 485 c-1 -25 40 -114 45 -99 3 6 -7 35 -20 65 -14 30 -25 45
-25 34z"/>
</g>
</svg>
