
<svg xmlns="http://www.w3.org/2000/svg" version="1.1" xmlns:xlink="http://www.w3.org/1999/xlink" preserveAspectRatio="none" x="0px" y="0px" width="250px" height="150px" viewBox="0 0 250 150">
<defs>
<g id="logo1_0_Layer0_0_FILL">
<path fill="#3F474C" stroke="none" d="
M 138.3 85.95
L 138.3 0 0 0 0 85.95 138.3 85.95
M 135.5 2.85
L 135.5 83.25 2.9 83.25 2.9 2.85 135.5 2.85 Z"/>

<path fill="#41484E" stroke="none" d="
M 125 35.9
L 122.85 35.1 120.65 36.3
Q 119.75 35.55 119.25 34.65 118.65 33.6 117.75 32.6 115.6 32.45 113.6 31.4 112.6 30.85 111.7 30.9 111.55 31 111.55 31.1 111.25 33.75 111.15 36.45
L 108.75 40.45
Q 110.45 41.8 112.35 42.8 113.1 43.2 114 43.75 114.3 43.85 114.65 44 117.65 45.1 120.5 46.65 121.75 47.35 121.85 48.5 121.45 48.55 121.15 48.45 119.5 47.8 117.8 46.6
L 112.45 46.3 111.95 60.15 112.45 61.5 113.25 62.05
Q 113.5 62.95 113.9 63.75 115.1 66 113.8 68.15 112.15 69 110.35 68.85 106.25 68.85 102.6 67.1 102.45 66.85 102.2 66.7 99.75 64.6 97.75 61.9 97 60.95 95.5 61
L 94.6 62.55
Q 94.6 62.7 94.6 62.85 94.5 64.6 94.3 66.3 94 69.15 91.65 70.55
L 91.3 71.5 90.55 72.15 90.35 72.95 87.2 75.55
Q 87.1 75.05 87.15 74.6 87.35 73.35 87.7 72.15
L 88.3 72.15 89.8 70.05
Q 90.55 67.6 91.4 65.2 92.25 62.8 93.3 60.45 94 58.85 93.8 56.95
L 92.3 59.55 91.65 59.9
Q 91.15 62.25 89.7 63.9
L 89 63.35
Q 88.1 63.4 87.6 64 87.2 64.55 86.75 65.1 85.7 66.4 84.8 67.45
L 83.95 67.65 80.6 73.2 80.5 71.1
Q 81.15 70.45 81.25 69.5 81.4 67.8 80.75 66.05 82.8 65.1 84.25 63.3 84.8 62.7 85.3 62.05 86.8 61.65 86.9 59.9 88.4 58.8 88.95 57 89.5 55.15 89.15 54.4
L 87.8 55.1 86.9 52.15 85.3 52.8 84.65 53.65 83.15 52.7 78.9 46.85
Q 76.45 45.9 75.95 43.4 75.8 43.4 75.7 43.4 75.6 43.4 75.5 43.4 75.4 43.3 75.35 43.25 75.1 42.95 74.8 42.7 73.7 41.45 72.75 40.2 71.5 38.55 69.8 38.05
L 67 39.15
Q 65.85 42.5 66.9 45.5
L 67.95 43.4 68.7 42.8 68.9 41.85 71.15 47.9 70.7 51.95
Q 70.65 52 70.55 52 70.45 52.1 70.4 52.2 70.35 52.3 70.35 52.45 70.6 54.15 69.55 55.35 69.55 57.05 68.8 58.8 68.25 60.15 68.1 61.55 67.7 64.65 66.5 67.6 66.25 68.3 65.8 68.95
L 65.8 70.05 65.15 70.5
Q 64.2 73.9 62.4 76.7
L 62.45 77.4 59.4 80.95 133.5 81.25
Q 133.7 66.95 133.6 52.55 133.6 49.5 133.35 46.5
L 131.85 45 131.65 44.2
Q 130.3 43 129.05 41.75 128.75 41.4 128.7 40.7
L 127.15 38.6
Q 125.5 37.7 125 35.9 Z"/>

<path fill="#42494F" stroke="none" d="
M 38.35 69.25
L 36.5 74.05 34.1 75.9 33.85 77.25
Q 32.9 78.15 32.1 79.2 31.55 79.9 31.15 80.7 31.15 80.8 31.2 80.95 34.55 81.05 37.9 81.2 42.8 81.35 47.9 81.4 52.9 81.4 57.8 81.25 58.25 79 58.65 76.7 59 74.65 59.05 72.6 59.1 71.3 59 69.95 58.9 68.75 58.9 67.55 58.85 66 58.1 64.7 58.4 63.1 59 61.65 60.25 58.65 60.95 55.6 61.05 55.1 61.1 54.65 57.6 58.45 55.3 62.85 54.75 62.05 54.3 61.2 54.15 61 54.05 60.85 53.95 60.6 53.8 60.45 53.65 60.25 53.5 60.15 53.25 60 53 59.9
L 51.9 60.25
Q 51.8 60.5 51.7 60.7 51.45 61.1 51.15 61.4 51 61.55 50.85 61.65 50.65 61.75 50.45 61.8 50.25 61.95 50.05 62 49.55 62 49.05 62
L 46.1 60.15 44.25 60.15
Q 43.8 61.4 44.1 62.8 44.5 64.65 44.15 66.6 43.85 68.35 42.9 69.75 41.75 69.4 40.65 69.05 39.5 69.15 38.35 69.25 Z"/>

<path fill="#3F464C" stroke="none" d="
M 124.4 32.8
Q 124.45 32.8 124.5 32.95
L 125.55 35.1 128.7 38.6 129 39.4 133.8 44.7 133.8 5.05 4.5 5.05 4.5 81.25 18.5 81.35 30 80.9 31.15 77.75 31.85 77.25 31.95 76.45 33.85 74.55
Q 33.85 74.25 33.9 73.95 33.9 73.7 34 73.45 34.1 73.25 34.25 73.1 34.35 72.95 34.45 72.85 34.6 72.55 34.75 72.25 35.25 71.15 35.5 70 35.8 68.85 36.05 67.65 36.05 67.6 36.15 67.55 36.85 66.8 37.55 66 37.7 65.85 37.75 65.7 37.8 65.45 37.85 65.25
L 40.5 62.3 41.1 61.8 41.3 60.15
Q 41.35 60.15 41.4 60.05
L 41.45 60.1
Q 42 59.3 42.5 58.45 43.3 57.15 44.65 56.35 45 56.15 45.35 55.95 45.4 55.9 45.55 55.9
L 47.65 55.95
Q 47.95 56.3 48.35 56.55 48.9 56.95 49.6 57.25 49.9 57.35 50.25 57.5 50.55 57.45 50.9 57.5
L 53.8 55.1 54 54.5 54.9 53.75 56.75 49.8 58.6 47.9 58.8 47.05 59.4 46.6
Q 59.4 46.45 59.45 46.35 60.5 43.65 62 41.3 63.35 39.25 64.95 37.2 65 37.1 65 37 65.05 36.3 65.15 35.65 65.25 35.2 65.45 34.8 65.6 34.4 65.8 34.05
L 66.15 32.55 66.6 32.45
Q 67 32.65 67.4 32.95 68.05 33.35 68.5 34 69.65 35.85 71.2 37.15 71.95 37.9 72.75 38.6
L 73 39.65 77.8 44.2 78.9 44.45 81.6 47.35 81.55 47.9
Q 81.65 47.9 81.75 47.95
L 81.8 47.95
Q 81.85 48.1 81.9 48.25 81.95 48.3 82 48.4 82.1 48.5 82.25 48.6 82.6 48.9 82.85 49.3 83 49.5 83.05 49.75 83.1 50 83.15 50.3
L 84 51 84.25 50.65
Q 84.65 50.45 85.05 50.3 86.05 50.15 87.05 50 87.6 50 88.2 50.05 88.2 50.15 88.25 50.25 88.45 50.45 88.75 50.65 88.95 50.85 89.2 51 89.45 51.1 89.75 51.25 90.05 51.3 90.35 51.35 90.5 51.25 90.65 51.25 90.85 51.15 91.05 51 91.25 50.95 91.4 50.85 91.8 50.35 92.15 49.9 92.35 49.6 92.5 49.35 92.65 49 92.75 48.7 92.85 48.65 92.9 48.6 93.15 48.4 93.3 48.1 93.7 47.55 93.9 46.85 94 46.45 94.15 46.1 94.15 46 94.25 46
L 94.85 45.5 95.8 43.4
Q 96 43.4 96.2 43.4 96.4 43.5 96.6 43.6 96.75 43.45 96.9 43.3
L 97.95 40.95 98.6 40.4 98.85 39.4 100.2 38.3 102.6 38.05 105.15 34.85 106.35 31.65 106.9 31.4 107.15 30.05 107.7 29.8 107.95 28.45 110.65 26.25 113 29.8 118.6 31.65
Q 118.7 31.65 118.85 31.65 120.6 31.7 122.35 32.1 123.4 32.25 124.4 32.8
M 43.45 23.1
L 44.35 21.8
Q 44.45 21.4 45.05 21.65 45.1 21.7 45.25 21.65
L 45.8 22.35
Q 45.9 21.55 46.7 22.3 46.85 22.5 47.15 22.6
L 47.7 23.9 49.3 25.5 49.3 26.85 50.3 28.75 53.45 29.9 52.25 30.4
Q 52.2 30.75 52.15 31.15
L 54.9 32.7 55.95 35.1
Q 55.85 35.8 55.2 35.9 55.15 35.95 55.15 36.3
L 54.75 35.55 54.45 36.7 53.95 35.75 53.2 36.1 47.85 31.8 47.2 32.6 44.5 32.45
Q 43.8 31.5 43.3 30.55 43.15 30.2 43.15 29.8
L 44.25 28.45 45.75 29
Q 45.8 28.85 45.75 28.75 45.3 28.05 44.9 27.35 44.4 26.35 44.1 25.3 43.9 24.45 43.85 23.65 43.8 23.45 43.7 23.25 43.6 23.15 43.45 23.1 Z"/>
</g>
</defs>

<g transform="matrix( 1.8077392578125, 0, 0, 1.7453155517578125, 0,0) ">
<g transform="matrix( 1, 0, 0, 1, 0,0) ">
<use xlink:href="#logo1_0_Layer0_0_FILL"/>
</g>
</g>
</svg>
